<?xml version="1.0" encoding="UTF-8" standalone="no"?>
<svg xmlns="http://www.w3.org/2000/svg" version="1.1" viewBox="0 0 300 800">
<path stroke="#DDD" stroke-width="1.4" d="M0,309h300m0,183h-300"/>
 <path d="m84.7,484c-26.5-10.6-29.5-39.6,2.55-28.9,24.6,8.47,48.3,9.25,71,3.4,14.6-3.75,30.5-13.2,40.2-23.5,19.9-21.1,29.6-61.2-3.48-81.1-10.7-6.45-24.9-7.26-35.9-8.66-20.1,0-28.1,2.65-36.9,3.31-8.37,0.624-14.7-5.83-15.6-13.3-0.84-7.22,1.38-9.82,6.69-14.3,4.25-3.61,9.44-5.98,15.3-7.05,26.1-4.82,41.3-0.411,66.5,7.4,73.9,32.1,55,109,13.4,142-23.5,18.9-34.3,21.5-57.5,24.9-17.6,2.56-42.4,1.27-66.3-4.24z"/>
</svg>
