<?xml version="1.0" encoding="UTF-8" standalone="no"?>
<svg xmlns="http://www.w3.org/2000/svg" version="1.1" viewBox="0 0 300 800">
<path stroke="#DDD" stroke-width="1.4" d="M0,309h300m0,183h-300"/>
 <path d="M19.4,489c-17.4-11-16-43-9.81-73,5.13-25,10.7-45.9,28.3-65.4,4.99-5.53,10.5-9.94,16-11.5,7.61-2.18,6.85,1.77,12.6,4.1,1.3,0.526,2.89,0.802,5.25,0.802,3.32-3.31,11.4-107,12.7-117,4.5-46.9,4.9-100,27.5-143,17.2-32.1,53.4-58.1,88.1-69.2,32.5-5.55,43.5-4.65,75.3,6.91,10.3,5.22,32.6,8.62,19.2,19.6-12.4,10.1-15.5,7.49-29.1,4.5-23.5-5.19-44-9.27-67.8-1.47-26.9,8.82-53.8,29.1-65.8,57.7-23.8,61.6-22.1,141-29.5,208-4.8,28.8-7.33,59-12.6,88.5-5.05,28.1-10.4,57.5-31.4,78.3-13.8,10.5-27.3,14.6-38.8,11.9zm17.3-83c2.82-8.72,6.8-16.6,12-24.7,5.01-6.54,8.36-14.6,16.4-13.3,1.69,22.9-1.09,43.9-8.21,61-34.2,55.1-29,4.22-20.2-23z" fill-rule="evenodd"/>
</svg>
