<?xml version="1.0" encoding="UTF-8" standalone="no"?>
<svg xmlns="http://www.w3.org/2000/svg" version="1.1" viewBox="0 0 300 800">
<path stroke="#DDD" stroke-width="1.4" d="M0,309h300m0,183h-300"/>
 <path id="_59946080" d="m67.235,370.88c6.0009-14.642,14.461-30.878,26.252-42.695,6.9823-6.996,13.106-10.647,22.246-13.629,25.168-8.2044,45.071-9.0732,63.229-0.42852,19.514,9.2918,39.698,31.454,48.41,50.881,14.513,32.357,3.2959,80.606-25.559,102.87-27.208,20.988-59.702,29.458-91.294,14.743-16.537-7.701-25.69-15.752-34.666-31.022-17.46-29.702-15.844-47.02-8.6176-80.717zm49.3,74.757c-19.942-13.05-23.661-33.47-20.585-55.12,3.0673-21.589,13.359-37.46,40.067-50.79,25.989-8.4895,56.771,15.37,64.057,42.973,3.6456,13.81,0.10426,30.145-5.1936,42.99-5.1699,12.531-13.984,22.357-27.351,27.548-18.978,7.3664-34.31,3.3163-50.998-7.6071z" fill-rule="evenodd" fill="#000"/>
</svg>
