<?xml version="1.0" encoding="UTF-8" standalone="no"?>
<svg xmlns="http://www.w3.org/2000/svg" version="1.1" viewBox="0 0 300 800">
<path stroke="#DDD" stroke-width="1.4" d="M0,309h300m0,183h-300"/>
 <path d="M45.4,484c-27.2-23,17.5-93,38.2-109,2.95-5.17,9.63-8.01,14.3-9.54,5.24-1.71,6.74-5.47,6.88-10.1,0.48-16.6-1.63-34.5-1.54-51.4,0.159-26.8,1.29-52.8,2.62-80.3-2.64-17.8-6.72-13.5-23.4-14.2-31.1-5.98-52-12.8-60.3-46.5-4.85-29.7-2.59-74.5,17.8-92.1,14.5-12.4,17.5-5.73,17.5,9.79-5.71,20.7-7.52,42.1-8.46,63.8,0.896,12.5,10.3,25.8,21.6,32.8,5.84,3.64,32,6.94,36,0.667,4.72-7.41,2.4-22.7,3.59-31.6,5.55-41.6,27.9-81.5,59.7-109,16.1-13.9,31.3-19.7,52.9-21.7,25.1-2.3,48.6,5.43,59.8,33.6,11.6,61.7-34.6,95.7-89.8,126-18,10-31.2,14.4-49.5,21.2-8.43,3.14-11.8,7.59-13.4,16.4-2.49,13.6-0.551,26-0.664,39.5-0.135,16.1-2.11,33.3-0.263,50,5.24,62.8,17.6,167-57.6,186-9.67,2.41-17.7,2.21-25.9-4.7zm27.8-30.7c-8.81-7.97,17.6-54.5,28.4-55.5,8.67,11.7-9.78,57.5-28.4,55.5zm63.8-282c-5.58-4.35-4.48-13-2.03-21.6,4.84-16.9,9.17-36.8,18.6-51.5,18.7-29,54.1-64.4,87.2-45.3,23,32.3-2.82,54.7-20,73.8-14.1,15.1-62.2,44.6-83.7,44.6z" fill-rule="evenodd"/>
</svg>
