<?xml version="1.0" encoding="UTF-8" standalone="no"?>
<svg xmlns="http://www.w3.org/2000/svg" version="1.1" viewBox="0 0 300 800">
<path stroke="#DDD" stroke-width="1.4" d="M0,309h300m0,183h-300"/>
 <path d="m86.4,491c-9.55-2.68-17.3-8.18-23.1-24.5-4.45-23.9,2.01-53.7,9.36-76.6,17.9-55.6,68-148,89.3-173,10.2-14.8,27.8-33.4,37.8-43.4,6.23-4.29,11.3-9.83,19.1-8.85,15-4.37,13.7,15.3-5.13,29.9-16.1,15.9-29.4,35.8-41.6,54.2-18.4,30.9-113,196-60.4,208,24.1,0,38.2-5.8,51.6-15.1,16.1-11.1,32.6-24.1,46.6-38.4,26.7-27.3,39.3,16.8,13.8,28.9-23.2,24.5-51.8,45-82.2,55.8-20.3,7.23-34.5,8.16-55.1,2.38z"/>
</svg>
