<?xml version="1.0" encoding="UTF-8" standalone="no"?>
<svg xmlns="http://www.w3.org/2000/svg" version="1.1" viewBox="0 0 300 800">
<path stroke="#DDD" stroke-width="1.4" d="M0,309h300m0,183h-300"/>
 <path d="m189,338c0-14.1,2.46-22.1,15.3-24.8,15.3-7.64,15.4-3.13,24.2,11.2,8.62,33.4,27.1,58.8,17.7,85.2-2.76,7.74-5.28,11.2-11,16.9-28.2,28.4-68,50.6-98.3,71.5-11,6.79-38.7,20.1-57.7,25.9-8.84,2.73-12,4.12-19.8,0.0699-3.48-1.78-7.24-3.91-9.86-6.41-6.64-6.33-1.45-10.3,3.98-14.9,12.3-10.5,38.1-14,55.5-23.4,36.7-16.4,82-41.7,103-73.7,12.8-19.2-15-51.2-23.4-67.5z"/>
</svg>
