<?xml version="1.0" encoding="UTF-8" standalone="no"?>
<svg xmlns="http://www.w3.org/2000/svg" version="1.1" viewBox="0 0 300 800">
<path stroke="#DDD" stroke-width="1.4" d="M0,309h300m0,183h-300"/>
 <path d="m82.8,407c3.54-13.6,7.93-26.9,14.6-39.2,7.45-13.8,12.8-17.4,25-26.1,5.9-4.22,11.5-8.86,14.1-13.8,6.85-37.5,13.1-78.4,14-117,0.13-5.86-0.186-11.7-0.186-17.7-4.23-4.23-21.3,3.56-25.7,4.99-24.6,19.7-76.5,41.6-61.1,80.3,10.2,9.28,17.5,19.4,10.4,29.9-4.43,6.64-6.38,6.59-13.9,4.7-13.1-3.31-29.1-13.2-31.9-24.6-21.4-35.2,23-68.7,44.9-84.9,23.3-20.2,48.2-35.3,77.6-46.2,11.2-11.3,11.7-31.4,16.5-45.7,3.87-9.21,7.44-15.1,11.2-21,7.84-12.1,13.6-16.7,26.1-24.6,19.9-12.5,44.2-22.8,64.7-16.5,13.9,4.3,18.6,11.8,21,25.9,4.07,24.3-12.7,42.4-33.5,57.1-13.7,9.63-25.6,15.6-41,21.5-13.5,5.22-27,11.6-35.4,23-10.2,45.8-9.77,96.2-12.9,143-2.05,30.5-5.44,61.1-9.59,91-2.19,15.8-2.91,24.4-10.9,38.1-11.4,19.6-27.1,40.2-50.8,40.2-12.7-4.21-16.8-22.5-18.5-38.7-1.68-16.8,0.954-27.6,5.21-44zm27.9,29.6c-5.7-13.1,7.49-65.1,21.5-66,3.64,5.66-10.3,66-21.5,66zm81.5-300c1.8-15.9,7.92-25.4,15.6-36.5,5.78-8.38,7.81-9.71,17.2-14.1,11.1-5.23,24.3-9.22,33.6-1.82,1.03,24.8-45.1,47.2-66.4,52.5z" fill-rule="evenodd"/>
</svg>
