<?xml version="1.0" encoding="UTF-8" standalone="no"?>
<svg xmlns="http://www.w3.org/2000/svg" version="1.1" viewBox="0 0 300 800">
<path stroke="#DDD" stroke-width="1.4" d="M0,309h300m0,183h-300"/>
 <path d="m234,303c4.91-15.3,0.169-20.1-5.74-29.8-32.6-43.5-71.7-36.6-113-30.2-8.45,1.34-13.2,2.79-17.8,10.6-5.84,9.94-5.47,22.2,10.6,24.2,36.9-22.9,129-4.64,61.9,48.8-33.6,36.6-19.8,45.3,5.38,83,15.8,25.1-61.7,45.7-86.4,45.7-14.8-4.27-27.3-8.21-36.5,8.08-17.7,61.8,116-0.0355,135-8.85,34.1-26,40.9-39.2,13.8-71.9-21.5-18.4-12.7-23.5,0.822-44.9,9.95-8.08,24.5-22.7,31.8-34.8z"/>
</svg>
