<?xml version="1.0" encoding="UTF-8" standalone="no"?>
<svg xmlns="http://www.w3.org/2000/svg" version="1.1" viewBox="0 0 300 800">
<path stroke="#DDD" stroke-width="1.4" d="M0,309h300m0,183h-300"/>
 <path d="m111,711c-6.43-3.24-7.24-9.17-6.01-14.9,1.43-6.64,2.36-12.1,2.98-19,3.28-36.8,6.59-73.4,10.3-110,6.1-47.2,12-91,23.2-137,3.66-7.29,2.14-21.1,11.2-23.2,4.19-0.961,9.41,0.0308,13.1,3,6.85,5.46,3.69,24.4,2.35,32-8.15,50.5-27.2,114-28.6,164-0.48,17.2-2.3,49.6-8.13,74-4.31,18-10.8,31.7-20.6,31.7zm94.6-267c1.85-6.57,3.15-8.52,2.37-15.8-5.71-53.3-54-78-95.5-77.5-11.6,0-19.3,2.03-28.5,6.49-5.2,2.52-7.54,4.04-13.4,1.11-8.96-4.46-6.34-17.1,0.869-24.8,6.33-6.8,22.3-7.63,31.2-9.06,44.7-7.18,70,0.845,106,32.2,11,9.56,14.6,20.6,19.7,34.4,9.69,26,16.1,58.2-8.76,64.1-7.91,1.85-17-0.442-14-11.1z"/>
</svg>
