<?xml version="1.0" encoding="UTF-8" standalone="no"?>
<svg xmlns="http://www.w3.org/2000/svg" version="1.1" viewBox="0 0 300 800"><path stroke="#DDD" stroke-width="1.4" d="M0,309h300m0,183h-300"/>
<path d="m58.6,458c13.2-12.7,27.8-26.6,44.4-34.8,8.14-4,14.4-5.63,23.3-5.87,23.4-0.63,40.1,3.09,61.5,11.4,4.19,1.64,8.76,4.76,13.2,3.51,17-12.2,2.66-43-19.3-63.2-23.8-18.3-46.6-16.1-82-14.1-6.86-1.29-11.1-0.62-15-6.96-5.92-9.48-0.365-21.5,13.8-27,23.5-5.65,45.3-0.0738,67.2,6.61,35.6,11.9,57.1,35,70.3,66.3,5.57,13.4,15.5,38.9,5.35,56.5-7.69,8.78-20,15.5-29.1,14.3-21.1-1.75-34.4-7.32-54.8-12.6-25.5-9.52-37.3-2.84-55.4,5.62-34.7,24.3-34.7,24.3-38.2,26.1-7.47,0-9.45-9.69-9.58-16.4-0.115-5.7,0.389-5.67,4.25-9.38z"/>
</svg>
