<?xml version="1.0" encoding="UTF-8" standalone="no"?>
<svg xmlns="http://www.w3.org/2000/svg" version="1.1" viewBox="0 0 300 800">
<path stroke="#DDD" stroke-width="1.4" d="M0,309h300m0,183h-300"/>
 <path d="m63.204,373c7.6736-16.028,25.199-44.069,47.261-54.298,17.351-8.0423,55.095,3.9752,60.328,34.098,2.5893,14.916-1.6436,22.113-10.01,33.392-5.1595,6.9499-11.118,13.862-18.66,19.602-12.229,8.0814-25.692,16.11-37.184,25.083-5.8013,4.53-8.8429,2.9493-15.749,2.5672-3.6302,3.6199,0.93195,10.623,5.5967,15.078,4.8079,4.5912,9.237,5.1338,15.747,5.2909,16.395,0.39413,32.779-4.262,47.529-9.9914,18.271-7.0969,47.464-19.884,60.582-34.557,7.0064-7.8307,34.561-38.78,45.298-20.765,0,12.615-0.91154,17.453-8.1192,23.001-5.9634,4.5896-9.0682,7.4894-14.347,12.84-25.373,25.735-85.339,55.318-116.27,59.063-18.71,1.642-34.057-3.7225-45.781-12.176-18.74-13.518-25.151-28.565-26.529-50.838-0.9694-15.608-0.06485-26.962,10.313-47.389zm25.579,3.1816c10.241-18.858,38.553-41.668,48.351-25.324,16.016,31.319-27.974,39.607-47.549,64.209-2.265,2.8487-1.7171,3.8659-5.4189,3.7158-13.038-0.53082,0.44026-38.268,4.6167-42.601z" fill-rule="evenodd"/>
</svg>
