<?xml version="1.0" encoding="UTF-8" standalone="no"?>
<svg xmlns="http://www.w3.org/2000/svg" version="1.1" viewBox="0 0 300 800">
<path stroke="#DDD" stroke-width="1.4" d="M0,309h300m0,183h-300"/>
 <path d="m7.6493,503.9c-7.4206-5.4365-8.5865-6.9524-5.945-15.105,1.6666-5.1433,3.8544-9.1134,9.8363-11.522,27.562-3.6797,46.912-12.036,73.052-23.021,24.423-9.3566,56.814-31.189,69.217-61.112,2.5188-6.0769,6.1451-16.888,6.8686-23.458,0.6499-5.9017-1.5623-10.606-6.4607-18.01-22.737-16.373-3.1005-15.11,6.8535-29.999,12.796-8.6167,44.336,0.24822,56.384,8.5239,27.491,11.736,52.03,22.23,71.388,43.728,4.8954,10.334,16.21,24.12,7.6152,41.537-24.639,30.616-35.83,12.07-32.805-7.2795,1.1886-7.6023-2.1552-14.114-7.5008-18.104-16.427-10.559-37.198-28.064-57.121-28.064-7.017,7.0877-7.289,18.28-12.123,27.295-7.0038,13.266-12.813,26.348-20.642,36.173-23.338,29.286-73.632,57.526-114.09,69.999-10.302,3.176-18.445,5.9338-28.406,10.024-8.0856,3.3208-9.301,3.3915-16.121-1.605z"/>
</svg>
