<?xml version="1.0" encoding="UTF-8" standalone="no"?>
<svg xmlns="http://www.w3.org/2000/svg" version="1.1" viewBox="0 0 300 800">
<path stroke="#DDD" stroke-width="1.4" d="M0,309h300m0,183h-300"/>
<path d="m220,475c-16-7.97-11.2-10.4-11.2-28,3.5-24.9,8.82-57.6-13.4-76.2-51.7-38.8-107-12.4-148-2.83-28,6.47-8.85-30.3,9.75-34.1,44.6-18.3,147-26.7,172,24.4,7.32,12.5,25.6,55.8,3.46,112-4.45,4.45-6.21,5-11.9,5zm-100,5.28c-17-7.39-6.64-21.7-8.21-39.3-10.4-13.4-21.6,4.79-32.9-14.4-6.1-16.9,9.77-19.4,22-19.7,24.4,1.39,46.2,16.4,39.8,44.5-3.62,15.9-4.15,26-20.7,28.9z"/>
</svg>
