<?xml version="1.0" encoding="UTF-8" standalone="no"?>
<svg xmlns="http://www.w3.org/2000/svg" version="1.1" viewBox="0 0 300 800">
<path stroke="#DDD" stroke-width="1.4" d="M0,309h300m0,183h-300"/>
 <path d="m81.8,366c-10.2-6.26-9.7-11.7,4.72-22.1,4.18-1.37,6.51-2.61,7.93-4.57,2.66-3.66,3.56-11.5,6.29-16.6,3.78-6.99,5.04-7.25,6.93-9.98,19.7-14,23.1,7.53,23.1,23.8,0.879,1.15,1.76,2.31,2.69,3.46,18.7,5.8,29.9,7.94,47,18.6,28.3,17.6,44.3,27.1,48.2,63.2,1.58,14.4,2.21,24.1-3.96,37.8-4.12,9.16-9.99,18-16.7,19.6-22.4,4.13-15.9-17.5-12-32.5,2.83-10.9-0.16-24.3-5.96-34.1-12.6-21.1-43.6-34.1-67.2-35.8-17.9,11.9-15.4,83.6-31.8,107-10.1,14.3-16.9,3.99-19.8-8.24-3.4-14.2,4.13-26.1,6.99-40.2,2.02-9.92,6.87-40,8.62-56.4,0.987-9.29,1.16-9.03-5-12.8z"/>
</svg>
