<?xml version="1.0" encoding="UTF-8" standalone="no"?>
<svg xmlns="http://www.w3.org/2000/svg" version="1.1" viewBox="0 0 300 800">
<path stroke="#DDD" stroke-width="1.4" d="M0,309h300m0,183h-300"/>
 <path d="m58.3,670c8.25-49.2,18.7-99.8,28.6-149,4.8-23.7,16.4-56.1,37.3-69.2,21.3-16.3,56.3-24.8,74.4-44,28-29.8-24.2-72.3-66.7-55.1-13.6,4.23-22.2,10.1-32.7-0.385-5.76-14.7,4.59-22.1,15.4-28.8,28.1-17.5,78.4-5.25,106,19.6,19.7,17.9,26.4,50.8,11.3,73.7-8.31,12.6-23.2,21.9-43.4,33.7-20.2,11.9-39.8,17.4-52.8,30-18.1,17.6-18.5,39.9-23.6,62.9-7.51,33.8-14.1,68.3-21,102-0.494,11.8-0.989,23.5-1.48,35.3-3.78,15.1-3.49,21.5-13.4,24.5-28.2,8.4-20.6-16.7-17.5-35.1z"/>
</svg>
