<?xml version="1.0" encoding="UTF-8" standalone="no"?>
<svg xmlns="http://www.w3.org/2000/svg" version="1.1" viewBox="0 0 300 800">
<path stroke="#DDD" stroke-width="1.4" d="M0,309h300m0,183h-300"/>
 <path d="m37.5,478c25.9-38.7,47.5-70,69.8-104,24.6-37.7,42.4-45.3,60.3-6.18,5.51,12,21.1,61.1,28.5,61.5,8.2,0.47,29.5-78,30.7-94.2,1.19-16.4,9.54-25.5,19.8-21.6,8.62,3.23,9.29,3.73,8.93,10.7-0.91,17.8-6.25,41.2-12.2,59-8.07,24.2-20.3,63.4-35.5,80.3-15.5,10.4-23.7,6.66-30.9-8.52-8.41-17.7-20.2-41.8-27.9-60.1-11-29-27.8,5.19-48.3,36.1-11.2,16.9-23.9,39.7-40.3,55.5-4.83,4.7-11.1,6.51-16.6,5.38-10.7-2.2-11.6-5.99-6.38-13.8z"/>
</svg>
