<?xml version="1.0" encoding="UTF-8" standalone="no"?>
<svg xmlns="http://www.w3.org/2000/svg" version="1.1" viewBox="0 0 300 800">
<path stroke="#DDD" stroke-width="1.4" d="M0,309h300m0,183h-300"/>
 <path d="m94.9,781c-12.8-6.42-18.7-20.8-20.8-34.3-0.548-3.39,0.711-4.58,3.54-11.4,6.85-16.6,6.53-26.5,13.1-47.6,4.94-16.5,9.12-45.5,13.3-77.1,8.38-64.1,17.1-116,29.4-179,4.92-25.3,9.13-54.5,6.58-60.7,0-19.6,3.55-51.8,23.6-61.8,7.92-3.95,8.68-1.7,11.9,5.97,1.33,3.17,2.41,6.57,3.67,9.76,0,18.9-3.06,37.9-6.59,56.9-4.74,25.6-8.99,50.7-14.5,76.1-17.1,79-21.6,149-39.6,229-3.72,16.4-9.65,30.5-9.59,47.2,0.0707,17.8-0.989,47.6-14,47.6z"/>
</svg>
