<?xml version="1.0" encoding="UTF-8" standalone="no"?>
<svg xmlns="http://www.w3.org/2000/svg" version="1.1" viewBox="0 0 300 800">
<path d="m116,482c-24.9-22.2-19.4-69.8,6.1-97.1,6.93-6.22,16.4-15.1,9.24-24-8.21-6.04-18-12.8-33.8-16-12.3-3.56-27.3-5.75-38.8-10.3-2.07-7.48,9.55-9.62,15-9.62,16.4-2.86,52.6-2.18,71.6,7.51,5.78,3.04,11.5,6.29,18.3,6.29,16.8-12.7,30.7-28.6,51-24.9,10.5,1.9,14.8,6.08,19.2,15.7,5.3,11.6,1.18,17.8-7.35,19.1-12.9,1.96-17.6-7.09-31,0.592-6.02,3.46-11.4,8.2-11.4,15.3,7.82,15.5,14.2,27.8,18.7,43.7,6.54,23.1,0.407,43-12.5,57.7-20.5,21-55.4,36.3-74.1,16zm29.6-23.1c-12.2-0.799-10.3-24.4-7.5-35.5,3.25-8.98,10-20.9,17.8-25.3,10.2-1.25,15.6,20.6,14.9,30.4,0,14.1-10.8,30.7-25.2,30.5z" fill-rule="evenodd"/>
<path stroke="#DDD" stroke-width="1.4" d="M0,309h300m0,183h-300"/>
</svg>
