<?xml version="1.0" encoding="UTF-8" standalone="no"?>
<svg xmlns="http://www.w3.org/2000/svg" version="1.1" viewBox="0 0 300 800">
<path stroke="#DDD" stroke-width="1.4" d="M0,309h300m0,183h-300"/>
 <path d="m120,487c-22-3.02-40.8-10.2-42.3-36.4-0.566-9.61,0.896-14.6,5.2-23,6.57-12.9,15.9-25.4,27.4-36.7,6.12-5.99,8-8.24,17.2-7.63,6.51,0.427,13.9,1,14.5,9.5,0.592,8.25-5.5,14-11.3,18.6-9.19,7.32-20.1,16.6-23.5,27.1-2.12,6.64-1.5,10.1,3.6,14.6,13.8,12.1,34.5,4.42,52.8-6.98,12-7.46,26.7-16.7,33.9-29.2,25-43.5-11.1-84.2-70.7-68.9-9.89,3.48-49.6,24.2-49.6,0.385,11.5-23.6,59.9-36.5,84.9-36.5,8.15,0.54,18.8,3.07,29.1,6.71,11.5,4.06,18.8,10.2,26.4,20.1,10.9,14.3,18.9,34.4,15.6,57.3-2.09,13.2-12.5,32.9-23.5,44.9-20.1,24.4-58.5,46.2-89.9,46.2z"/>
</svg>
