<?xml version="1.0" encoding="UTF-8" standalone="no"?>
<svg xmlns="http://www.w3.org/2000/svg" version="1.1" viewBox="0 0 300 800">
<path stroke="#DDD" stroke-width="1.4" d="M0,309h300m0,183h-300"/>
 <path d="m214,468c-3.08-5.02-1.16-9.22,2-14,3.36-5.1,3.13-6.67,3.41-13,0.619-13.9-0.0145-27.2-6.66-40.5-21.6-48.6-88.4-59-144-41.6-5.73,1.79-9.35,3.06-11.7-4.56-1.99-6.53,3.24-14.7,9.88-20.7,7.14-6.41,13.2-7.88,22.1-9.57,53-9.99,86.4,1.88,109,13.5,36.7,21.7,49.5,33.1,52,77.3,0.524,9.26,0.925,16.7-1.32,25.6-4.03,16-2.96,27.9-24.3,30.6-5.34,0.669-7.35,1.77-10.3-3.1z"/>
</svg>
