<?xml version="1.0" encoding="UTF-8"?>
<svg xmlns="http://www.w3.org/2000/svg" width="300" height="800">
<path stroke="#DDD" stroke-width="1.4" d="M0,309h300m0,183H0"/>
<path stroke-width="1.4" stroke="#000" d="m138.2,518c-21-5-51.6-19.2-53.7-41.2-6-60.3 83.6-64.2 79.7-107.8-1.3-15-22.6-29.8-34.5-36-9.3-5-20-1.3-24-6.4-4.4-12.7 2.7-15.2 16-19 26.4,3.2 67.6,38 65,68.5-0.6,6.7-4,13.8-8.4,21-6.7,11.3-27,29.3-44.7,43-39.3,30.8-16,49.5 20,53.6 18,2.6 41-4.8 55.5-14.3 9.6-3 38.8,10.2 18.5,20-21.8,16.8-62.3,25.3-89.5,19z"/>
</svg>