<?xml version="1.0" encoding="UTF-8" standalone="no"?><svg xmlns="http://www.w3.org/2000/svg" version="1.1" viewBox="0 0 300 800">
<path stroke="#DDD" stroke-width="1.4" d="M0,309h300m0,183h-300"/>
<path d="m141,430c-7.3,3.58-23.4,8.64-37.2-7.24-12.5-14.4,4.15-28,18.2-30.1,12.3-1.89,27.4-1.38,35.4,0.311,2.89-0.317,50.4-37.9,49.3-50.2-12.8-15.5-82-21.2-110-12.8-10.7,3.21-8.02,3.84-20.5,3.59-12.9-0.263-21.3-0.236-23.1-16.1,8.55-20.4,87.6-22,143-8.63,32,7.72,48.4,14.2,48.7,25.9,0.477,19.5-34.8,46.8-63.1,69.8-7.33,9.09,2.59,16.3,5.76,25,16.7,23.1,3.77,70.4-27.1,70.4-2.74-1.38-5.16-3.69-4.69-6.7,2.33-14.7,23.8-51-2.21-66.4-6.33-2.39-8.61-0.698-12.7,2.95zm-5.54-20.6c0.092,2.13-7.22,5.21-9.99,3.07,0.0878-4.16,7.74-4.95,9.99-3.07z" fill-rule="evenodd" fill="#000"/>
</svg>
