<?xml version="1.0" encoding="UTF-8" standalone="no"?>
<svg xmlns="http://www.w3.org/2000/svg" version="1.1" viewBox="0 0 300 800">
<path stroke="#DDD" stroke-width="1.4" d="M0,309h300m0,183h-300"/>
 <path d="m158,478c12.2-5.23,21-12.4,34.7-23.8,41.9-45.9-55.5-51.9-40.8-105,4.09-14.8,81.1-73.1,75-30-12.7,15.8-53.5,28.7-29.6,51.3,27.3,27.3,59.9,42.4,43.7,76.8-5.73,12.2-13.2,18.6-23.7,26.1-18.8,13.4-36,24.4-57.4,34.2-33.7,15.5-62.3,32.5-109,32.5-5.72-1.82-9.75-6.29-12.2-11.5-4.68-10.1-3.93-12.5,4.13-19.1,8.56-6.93,17.1-9.76,29.5-4.78,15.2,0,28.8-5.13,42.4-10.4,14.2-5.51,28.8-10.5,42.7-16.5z"/>
</svg>
